<svg xmlns="http://www.w3.org/2000/svg" width="1024" height="1024" viewBox="0 0 1024 1024" role="img" aria-label="爆破插件 logo">
  <defs>
    <linearGradient id="bg" x1="0" y1="0" x2="1" y2="1">
      <stop offset="0" stop-color="#171b22"/>
      <stop offset="0.58" stop-color="#202a33"/>
      <stop offset="1" stop-color="#0d1015"/>
    </linearGradient>
    <linearGradient id="core" x1="0" y1="0" x2="1" y2="1">
      <stop offset="0" stop-color="#f2f7ff"/>
      <stop offset="0.48" stop-color="#9ad7ff"/>
      <stop offset="1" stop-color="#4b7dff"/>
    </linearGradient>
    <filter id="glow" x="-50%" y="-50%" width="200%" height="200%">
      <feGaussianBlur stdDeviation="18" result="blur"/>
      <feMerge>
        <feMergeNode in="blur"/>
        <feMergeNode in="SourceGraphic"/>
      </feMerge>
    </filter>
  </defs>
  <rect width="1024" height="1024" rx="152" fill="url(#bg)"/>
  <path d="M136 258h752M136 766h752M258 136v752M766 136v752" stroke="#2f3b47" stroke-width="12" opacity=".55"/>
  <path d="M184 512h168M672 512h168M512 184v168M512 672v168" stroke="#d7e7f5" stroke-width="22" stroke-linecap="square" opacity=".82"/>
  <path d="M512 232 620 420 824 512 620 604 512 792 404 604 200 512 404 420Z" fill="#111820" stroke="#d7e7f5" stroke-width="26"/>
  <circle cx="512" cy="512" r="134" fill="url(#core)" filter="url(#glow)"/>
  <circle cx="512" cy="512" r="78" fill="#f8fbff"/>
  <path d="M364 360 264 260M660 360l100-100M364 664 264 764M660 664l100 100" stroke="#ff5b4a" stroke-width="28" stroke-linecap="square"/>
  <text x="512" y="930" text-anchor="middle" font-size="92" font-family="Microsoft YaHei, Noto Sans CJK SC, sans-serif" font-weight="800" fill="#f2f7ff" letter-spacing="8">爆破</text>
</svg>

